<?xml version="1.0" encoding="UTF-8" ?>
<!DOCTYPE svg PUBLIC "-//W3C//DTD SVG 1.1//EN" "http://www.w3.org/Graphics/SVG/1.1/DTD/svg11.dtd">
<svg width="348pt" height="246pt" viewBox="0 0 348 246" version="1.1" xmlns="http://www.w3.org/2000/svg">
<g id="#309060ff">
<path fill="#309060" opacity="1.00" d=" M 0.00 0.00 L 348.00 0.00 L 348.00 246.00 L 0.00 246.00 L 0.00 0.00 M 140.43 88.90 C 140.44 93.35 140.52 97.80 140.52 102.24 C 141.39 102.24 143.12 102.25 143.98 102.25 C 143.98 99.00 143.98 95.75 143.99 92.51 C 164.00 92.46 184.00 92.55 204.01 92.50 C 204.02 95.75 204.02 99.00 204.02 102.25 C 204.88 102.25 206.61 102.24 207.48 102.24 C 207.48 97.79 207.48 93.35 207.49 88.90 C 185.14 89.01 162.78 89.07 140.43 88.90 M 121.13 105.72 C 120.70 117.03 121.02 128.37 121.13 139.68 C 121.50 139.42 122.23 138.88 122.60 138.61 C 123.03 132.41 122.55 126.18 122.79 119.98 C 122.63 118.38 123.63 117.16 124.64 116.06 C 125.80 117.33 126.96 118.64 127.68 120.22 C 130.19 125.41 132.64 130.62 135.14 135.81 C 135.86 137.33 136.83 138.71 137.94 139.97 C 140.43 135.87 142.13 131.36 144.15 127.03 C 145.87 123.43 146.99 119.38 150.02 116.60 C 151.06 117.88 152.40 119.16 152.21 120.98 C 152.34 126.97 152.16 132.97 152.25 138.96 C 152.72 138.95 153.65 138.93 154.11 138.93 C 153.78 127.93 154.28 116.90 153.82 105.91 C 152.30 104.94 151.73 107.18 151.11 108.08 C 148.13 114.46 145.26 120.89 142.26 127.26 C 141.39 128.90 140.44 130.84 138.59 131.55 C 136.62 132.54 134.90 130.46 133.90 129.01 C 129.85 121.48 126.84 113.42 122.68 105.95 C 122.29 105.89 121.52 105.78 121.13 105.72 M 217.24 114.00 C 217.45 122.71 216.80 131.46 217.58 140.14 C 218.29 138.88 218.64 137.46 218.55 136.01 C 218.52 129.34 218.51 122.67 218.50 116.00 C 218.46 112.39 218.74 108.75 218.05 105.19 C 216.74 107.94 217.37 111.07 217.24 114.00 M 183.18 109.12 C 181.62 109.53 182.26 112.16 183.85 111.71 C 185.40 111.33 184.75 108.65 183.18 109.12 M 225.05 109.28 C 223.70 110.17 225.18 112.52 226.52 111.47 C 227.85 110.56 226.40 108.20 225.05 109.28 M 158.17 114.21 L 158.12 115.31 C 163.05 115.82 168.04 115.17 172.96 115.76 C 175.38 115.89 176.57 118.11 177.46 120.04 C 174.02 123.24 169.18 121.94 164.96 122.29 C 162.53 122.42 159.75 123.21 158.60 125.57 C 157.25 128.73 157.37 132.42 158.45 135.64 C 159.41 138.25 162.44 139.27 164.99 139.24 C 169.44 139.28 173.89 139.33 178.33 139.07 C 178.58 130.97 178.62 122.84 178.39 114.75 C 178.04 114.58 177.34 114.26 176.98 114.10 C 170.73 113.85 164.43 113.87 158.17 114.21 M 183.13 113.34 C 182.46 117.19 182.80 121.11 182.76 125.00 C 182.82 129.98 182.52 134.97 183.04 139.93 C 183.37 139.43 184.02 138.43 184.35 137.93 C 184.74 132.97 184.38 127.97 184.51 123.00 C 184.35 119.75 185.21 116.17 183.13 113.34 M 190.89 114.99 C 190.55 120.98 190.87 127.00 190.73 133.00 C 190.81 135.35 190.33 137.93 191.78 139.99 C 192.38 133.96 191.60 127.88 192.24 121.85 C 192.39 119.13 194.26 116.47 197.01 115.89 C 199.83 115.23 202.91 115.22 205.62 116.33 C 208.21 117.45 209.29 120.43 209.47 123.06 C 209.65 128.58 209.28 134.12 209.57 139.64 C 211.74 138.50 210.87 135.95 211.04 134.00 C 210.81 127.45 211.38 120.88 210.64 114.36 C 204.44 113.73 198.17 113.96 191.96 114.13 C 191.69 114.34 191.16 114.77 190.89 114.99 M 224.99 122.00 C 225.16 127.87 224.57 133.78 225.29 139.63 C 225.61 139.29 226.26 138.61 226.59 138.27 C 227.02 133.87 226.64 129.42 226.76 125.00 C 226.66 121.11 227.26 117.12 226.06 113.34 C 224.46 115.97 225.11 119.09 224.99 122.00 M 140.43 156.13 C 162.78 155.77 185.13 156.20 207.48 155.98 C 207.52 151.54 207.51 147.09 207.54 142.65 C 206.67 142.66 204.92 142.68 204.04 142.68 C 204.01 145.96 203.94 149.24 203.87 152.52 C 183.96 152.44 164.04 152.53 144.12 152.50 C 144.06 149.23 143.98 145.95 143.96 142.68 C 143.08 142.68 141.32 142.67 140.45 142.67 C 140.44 147.16 140.54 151.64 140.43 156.13 Z" />
<path fill="#309060" opacity="1.00" d=" M 162.36 124.49 C 165.20 123.70 168.20 123.95 171.12 124.09 C 173.35 124.21 175.75 125.32 176.50 127.59 C 177.30 130.14 177.27 133.03 176.47 135.58 C 175.37 138.10 172.29 138.00 169.99 138.03 C 166.87 137.94 163.22 138.52 160.69 136.26 C 159.15 134.17 159.50 131.44 159.51 129.01 C 159.55 127.16 160.48 125.10 162.36 124.49 Z" />
</g>
<g id="#feffffff">
<path fill="#feffff" opacity="1.00" d=" M 140.43 88.90 C 162.78 89.07 185.14 89.01 207.49 88.90 C 207.48 93.35 207.48 97.79 207.48 102.24 C 206.61 102.24 204.88 102.25 204.02 102.25 C 204.02 99.00 204.02 95.75 204.01 92.50 C 184.00 92.55 164.00 92.46 143.99 92.51 C 143.98 95.75 143.98 99.00 143.98 102.25 C 143.12 102.25 141.39 102.24 140.52 102.24 C 140.52 97.80 140.44 93.35 140.43 88.90 Z" />
<path fill="#feffff" opacity="1.00" d=" M 121.13 105.72 C 121.52 105.78 122.29 105.89 122.68 105.95 C 126.84 113.42 129.85 121.48 133.90 129.01 C 134.90 130.46 136.62 132.54 138.59 131.55 C 140.44 130.84 141.39 128.90 142.26 127.26 C 145.26 120.89 148.13 114.46 151.11 108.08 C 151.73 107.18 152.30 104.94 153.82 105.91 C 154.28 116.90 153.78 127.93 154.11 138.93 C 153.65 138.93 152.72 138.95 152.25 138.96 C 152.16 132.97 152.34 126.97 152.21 120.98 C 152.40 119.16 151.06 117.88 150.02 116.60 C 146.99 119.38 145.87 123.43 144.15 127.03 C 142.13 131.36 140.43 135.87 137.94 139.97 C 136.83 138.71 135.86 137.33 135.14 135.81 C 132.64 130.62 130.19 125.41 127.68 120.22 C 126.96 118.64 125.80 117.33 124.64 116.06 C 123.63 117.16 122.63 118.38 122.79 119.98 C 122.55 126.18 123.03 132.41 122.60 138.61 C 122.23 138.88 121.50 139.42 121.13 139.68 C 121.02 128.37 120.70 117.03 121.13 105.72 Z" />
<path fill="#feffff" opacity="1.00" d=" M 217.24 114.00 C 217.37 111.07 216.74 107.94 218.05 105.19 C 218.74 108.75 218.46 112.39 218.50 116.00 C 218.51 122.67 218.52 129.34 218.55 136.01 C 218.64 137.46 218.29 138.88 217.58 140.14 C 216.80 131.46 217.45 122.71 217.24 114.00 Z" />
<path fill="#feffff" opacity="1.00" d=" M 183.18 109.12 C 184.75 108.65 185.40 111.33 183.85 111.71 C 182.26 112.16 181.62 109.53 183.18 109.12 Z" />
<path fill="#feffff" opacity="1.00" d=" M 225.05 109.28 C 226.40 108.20 227.85 110.56 226.52 111.47 C 225.18 112.52 223.70 110.17 225.05 109.28 Z" />
<path fill="#feffff" opacity="1.00" d=" M 158.17 114.21 C 164.43 113.87 170.73 113.85 176.98 114.10 C 177.34 114.26 178.04 114.58 178.39 114.75 C 178.62 122.84 178.58 130.97 178.33 139.07 C 173.89 139.33 169.44 139.28 164.99 139.24 C 162.44 139.27 159.41 138.25 158.45 135.64 C 157.37 132.42 157.25 128.73 158.60 125.57 C 159.75 123.21 162.53 122.42 164.96 122.29 C 169.18 121.94 174.02 123.24 177.46 120.04 C 176.57 118.11 175.38 115.89 172.96 115.76 C 168.04 115.17 163.05 115.82 158.12 115.31 L 158.17 114.21 M 162.36 124.49 C 160.48 125.10 159.55 127.16 159.51 129.01 C 159.50 131.44 159.15 134.17 160.69 136.26 C 163.22 138.52 166.87 137.94 169.99 138.03 C 172.29 138.00 175.37 138.10 176.47 135.58 C 177.27 133.03 177.30 130.14 176.50 127.59 C 175.75 125.32 173.35 124.21 171.12 124.09 C 168.20 123.95 165.20 123.70 162.36 124.49 Z" />
<path fill="#feffff" opacity="1.00" d=" M 183.13 113.34 C 185.21 116.17 184.35 119.75 184.51 123.00 C 184.38 127.97 184.74 132.97 184.35 137.93 C 184.02 138.43 183.37 139.43 183.04 139.93 C 182.52 134.97 182.82 129.98 182.76 125.00 C 182.80 121.11 182.46 117.19 183.13 113.34 Z" />
<path fill="#feffff" opacity="1.00" d=" M 190.89 114.99 C 191.16 114.77 191.69 114.34 191.96 114.13 C 198.17 113.96 204.44 113.73 210.64 114.36 C 211.38 120.88 210.81 127.45 211.04 134.00 C 210.87 135.95 211.74 138.50 209.57 139.64 C 209.28 134.12 209.65 128.58 209.47 123.06 C 209.29 120.43 208.21 117.45 205.62 116.33 C 202.91 115.22 199.83 115.23 197.01 115.89 C 194.26 116.47 192.39 119.13 192.24 121.85 C 191.60 127.88 192.38 133.96 191.78 139.99 C 190.33 137.93 190.81 135.35 190.73 133.00 C 190.87 127.00 190.55 120.98 190.89 114.99 Z" />
<path fill="#feffff" opacity="1.00" d=" M 224.99 122.00 C 225.11 119.09 224.46 115.97 226.06 113.34 C 227.26 117.12 226.66 121.11 226.76 125.00 C 226.64 129.42 227.02 133.87 226.59 138.27 C 226.26 138.61 225.61 139.29 225.29 139.63 C 224.57 133.78 225.16 127.87 224.99 122.00 Z" />
<path fill="#feffff" opacity="1.00" d=" M 140.43 156.13 C 140.54 151.64 140.44 147.16 140.45 142.67 C 141.32 142.67 143.08 142.68 143.96 142.68 C 143.98 145.95 144.06 149.23 144.12 152.50 C 164.04 152.53 183.96 152.44 203.87 152.52 C 203.94 149.24 204.01 145.96 204.04 142.68 C 204.92 142.68 206.67 142.66 207.54 142.65 C 207.51 147.09 207.52 151.54 207.48 155.98 C 185.13 156.20 162.78 155.77 140.43 156.13 Z" />
</g>
</svg>
